<svg xmlns="http://www.w3.org/2000/svg" width="256" height="256"><path fill-opacity=".016" d="M0 128.004v128.004l128.25-.254 128.25-.254.254-127.75L257.008 0H0v128.004m.485.496c0 70.4.119 99.053.265 63.672.146-35.38.146-92.98 0-128C.604 29.153.485 58.1.485 128.5" fill="#1976D2" fill-rule="evenodd"/><path fill-opacity=".179" d="M105.922 1.492C54.214 11.264 15.946 47.782 2.693 100 .847 107.271.535 111.319.535 128c0 16.681.312 20.729 2.158 28 3.328 13.112 7.921 24.909 13.485 34.633C34.659 222.934 62.579 243.81 100 253.307c7.271 1.846 11.319 2.158 28 2.158 16.681 0 20.729-.312 28-2.158 50.006-12.692 85.337-47.928 97.066-96.807 1.056-4.4 1.923-9.211 1.927-10.691.004-1.48.457-2.969 1.007-3.309.595-.368 1-6.697 1-15.618 0-9.745-.35-14.784-1-14.382-.576.356-1.003-.574-1.007-2.191-.004-1.545-.871-6.409-1.927-10.809-11.679-48.67-47.127-84.157-96.566-96.672-10.644-2.694-39.376-3.453-50.578-1.336m5.194 125.258c-5.138 42.213-9.578 78.229-9.866 80.036l-.524 3.287 10.354-.287 10.354-.286 9.197-75.5c5.059-41.525 9.452-77.413 9.764-79.75l.567-4.25H120.457l-9.341 76.75M.402 128c0 8.525.154 12.012.341 7.75.188-4.262.188-11.237 0-15.5-.187-4.263-.341-.775-.341 7.75" fill="#1976D2" fill-rule="evenodd"/><path fill-opacity=".398" d="M115 .625c-22.39 2.844-41.165 9.739-59 21.668C46.364 28.739 28.739 46.364 22.293 56 7.107 78.704.589 100.325.589 128c0 36.13 11.772 64.55 37.316 90.095C63.45 243.639 91.87 255.411 128 255.411c27.675 0 49.296-6.518 72-21.704 9.636-6.446 27.261-24.071 33.707-33.707 10.585-15.825 18.254-35.242 20.34-51.5.635-4.95 1.559-9.781 2.054-10.736 1.265-2.444 1.173-21.051-.101-20.264-.593.366-1-.786-1-2.831 0-5.776-2.93-19.31-6.166-28.483-6.814-19.315-15.647-33.188-30.739-48.281-18.919-18.918-40.458-30.603-65.281-35.415C144.581.894 121.749-.232 115 .625m5 49.871c0 .273-4.275 35.434-9.5 78.135-5.225 42.701-9.5 78.478-9.5 79.504 0 1.702.92 1.865 10.5 1.865 6.708 0 10.5-.382 10.5-1.056 0-.582 4.275-36.036 9.5-78.787 5.225-42.752 9.5-78.277 9.5-78.944 0-.874-2.938-1.213-10.5-1.213-5.775 0-10.5.223-10.5.496M.37 128c0 5.775.165 8.137.367 5.25.202-2.887.202-7.612 0-10.5S.37 122.225.37 128" fill="#1976D2" fill-rule="evenodd"/><path fill-opacity=".178" d="M115.888.964C59.522 6.694 14.548 47.413 2.896 103.266c-2.974 14.256-2.974 35.212 0 49.468 9.534 45.702 41.229 81.62 84.947 96.267 25.889 8.674 57.142 8.43 82.391-.643 42.78-15.373 73.728-51.007 82.75-95.281 1.109-5.44 2.016-12.156 2.016-14.925s.45-5.312 1-5.652c.55-.34 1-2.868 1-5.618 0-3.079-.384-4.763-1-4.382-.617.381-1-1.354-1-4.534 0-2.833-.907-9.603-2.016-15.043-9.013-44.227-40.135-80.068-82.75-95.295-15.496-5.537-38.128-8.312-54.346-6.664m3.655 51.253c-.309 1.806-4.607 36.808-9.553 77.783-4.946 40.975-9.237 75.963-9.536 77.75l-.545 3.25h21.915l.578-3.75c.553-3.594 18.343-150.097 18.851-155.25l.247-2.5-10.698-.283-10.699-.284-.56 3.284M.3 128c0 3.025.187 4.262.416 2.75.229-1.512.229-3.987 0-5.5S.3 124.975.3 128" fill="#1976D2" fill-rule="evenodd"/></svg>